<?xml version="1.0" encoding="UTF-8"?><svg id="Calque_2" xmlns="http://www.w3.org/2000/svg" viewBox="0 0 1387.72 380"><g id="Calque_1-2"><rect x="0" y="0" width="380" height="380" rx="43.43" ry="43.43" style="fill:#0b65c2; stroke-width:0px;"/><circle cx="190" cy="190" r="120.3" style="fill:#fff; opacity:.75; stroke-width:0px;"/><circle cx="190" cy="190" r="77.47" style="fill:#fff; opacity:.75; stroke-width:0px;"/><path d="M219.62,190c0,16.36-13.26,29.62-29.62,29.62s-29.62-13.26-29.62-29.62,13.26-29.62,29.62-29.62,29.62,13.26,29.62,29.62Z" style="fill:#0b65c2; stroke-width:0px;"/><path d="M538.1,69.34l52.2,179.47h1.99l52.2-179.47h78.05l-84.02,254.55h-94.46l-84.02-254.55h78.05Z" style="fill:#fff; stroke-width:0px;"/><path d="M806.27,327.37c-20.38,0-37.93-3.92-52.64-11.75-14.71-7.83-26.02-19.1-33.93-33.81-7.91-14.71-11.87-32.33-11.87-52.89s3.98-36.95,11.93-51.7c7.95-14.75,19.18-26.23,33.68-34.43,14.5-8.2,31.61-12.3,51.33-12.3,14.42,0,27.47,2.24,39.15,6.71,11.68,4.47,21.67,10.96,29.95,19.45,8.28,8.49,14.67,18.79,19.14,30.89,4.47,12.1,6.71,25.73,6.71,40.89v15.91h-170.53v-37.78h107.39c-.08-5.47-1.47-10.29-4.16-14.48-2.69-4.18-6.3-7.46-10.81-9.82-4.52-2.36-9.63-3.54-15.35-3.54s-10.65,1.18-15.29,3.54c-4.64,2.36-8.35,5.61-11.12,9.76-2.78,4.14-4.25,8.99-4.41,14.54v40.77c0,6.13,1.28,11.6,3.85,16.41,2.57,4.81,6.26,8.58,11.06,11.31,4.8,2.73,10.61,4.1,17.4,4.1,4.72,0,9.05-.66,12.99-1.99,3.93-1.32,7.31-3.25,10.13-5.78,2.82-2.53,4.89-5.57,6.21-9.14h62.64c-2.16,13.26-7.25,24.76-15.29,34.49-8.04,9.74-18.67,17.28-31.88,22.62-13.22,5.34-28.65,8.02-46.3,8.02Z" style="fill:#fff; stroke-width:0px;"/><path d="M918.82,323.89v-190.91h68.61v190.91h-68.61ZM953.25,113.09c-9.36,0-17.36-3.06-23.99-9.2-6.63-6.13-9.94-13.5-9.94-22.12s3.31-15.99,9.94-22.12c6.63-6.13,14.58-9.2,23.86-9.2s17.34,3.07,23.93,9.2c6.59,6.13,9.88,13.51,9.88,22.12s-3.29,15.99-9.88,22.12c-6.59,6.13-14.52,9.2-23.8,9.2Z" style="fill:#fff; stroke-width:0px;"/><path d="M1082.08,69.34v254.55h-68.61V69.34h68.61Z" style="fill:#fff; stroke-width:0px;"/><path d="M1176.73,69.34v254.55h-68.61V69.34h68.61Z" style="fill:#fff; stroke-width:0px;"/><path d="M1294.26,327.37c-20.38,0-37.93-3.92-52.64-11.75-14.71-7.83-26.02-19.1-33.93-33.81-7.91-14.71-11.87-32.33-11.87-52.89s3.98-36.95,11.93-51.7c7.95-14.75,19.18-26.23,33.68-34.43,14.5-8.2,31.61-12.3,51.33-12.3,14.42,0,27.47,2.24,39.15,6.71,11.68,4.47,21.67,10.96,29.95,19.45,8.28,8.49,14.67,18.79,19.14,30.89,4.47,12.1,6.71,25.73,6.71,40.89v15.91h-170.53v-37.78h107.39c-.08-5.47-1.47-10.29-4.16-14.48-2.69-4.18-6.3-7.46-10.81-9.82-4.52-2.36-9.63-3.54-15.35-3.54s-10.65,1.18-15.29,3.54c-4.64,2.36-8.35,5.61-11.12,9.76-2.78,4.14-4.25,8.99-4.41,14.54v40.77c0,6.13,1.28,11.6,3.85,16.41,2.57,4.81,6.26,8.58,11.06,11.31,4.8,2.73,10.61,4.1,17.4,4.1,4.72,0,9.05-.66,12.99-1.99,3.93-1.32,7.31-3.25,10.13-5.78,2.82-2.53,4.89-5.57,6.21-9.14h62.64c-2.16,13.26-7.25,24.76-15.29,34.49-8.04,9.74-18.67,17.28-31.88,22.62-13.22,5.34-28.65,8.02-46.3,8.02Z" style="fill:#fff; stroke-width:0px;"/></g></svg>